# xmcd
#
# Track frame offsets: 
#        150
#        21048
#        29803
#        39958
#        54323
#        59572
#        77266
#        87933
#        98462
#        113804
#        120893
#        131521
#        145360
#        156962
#        168212
#        179080
#        196411
#        210175
#        226265
#        232650
#        238935
#        250871
#        263701
#        270848
#        275989
#
# Disc length: 3780 seconds
#
# Revision: 0
# Processed by: cddbd v1.5.2PL0 Copyright (c) Steve Scherf et al.
# Submitted via: ExactAudioCopyFreeDBPlugin 1.0
#
DISCID=470ec219
DTITLE=Annika Skoglund - Duende
DYEAR=1900
DGENRE=Classical
TTITLE0=Cuba dentro de un piano 4:38
TTITLE1=Punto de Habanera (Siglo XVIII) 1:56
TTITLE2=Chévere 2:15
TTITLE3=Canción de cuna para dormir a un negrito 3:11
TTITLE4=Canto negro 1:09
TTITLE5=Descubrase el pensamiento 3:55
TTITLE6=Mananica era 2:22
TTITLE7=Llord, corazon, que teneis razon 2:20
TTITLE8=Mira que soy nina 3:24
TTITLE9=No lloreis, ojuelos 1:34
TTITLE10=Iban al pinar 2:21
TTITLE11=Gracia mia 3:03
TTITLE12=Allá arriba, en aquella montana 2:34
TTITLE13=Sereno! 2:30
TTITLE14=Llámale con el panuelo 2:24
TTITLE15=No quiéro tus avellánas 3:51
TTITLE16=Como quieres que adivine 3:03
TTITLE17=Mananita de San Juan 3:33
TTITLE18=El Pano moruno 1:25
TTITLE19=Seguidilla murciana 1:23
TTITLE20=Asturiana 2:39
TTITLE21=Jota 2:51
TTITLE22=Nana 1:35
TTITLE23=Canción 1:08
TTITLE24=Polo
EXTD=
EXTT0=
EXTT1=
EXTT2=
EXTT3=
EXTT4=
EXTT5=
EXTT6=
EXTT7=
EXTT8=
EXTT9=
EXTT10=
EXTT11=
EXTT12=
EXTT13=
EXTT14=
EXTT15=
EXTT16=
EXTT17=
EXTT18=
EXTT19=
EXTT20=
EXTT21=
EXTT22=
EXTT23=
EXTT24=
PLAYORDER=
